<?xml version="1.0" standalone="no"?>
<!DOCTYPE svg PUBLIC "-//W3C//DTD SVG 20010904//EN"
 "http://www.w3.org/TR/2001/REC-SVG-20010904/DTD/svg10.dtd">
<svg version="1.0" xmlns="http://www.w3.org/2000/svg"
 width="64.000000pt" height="64.000000pt" viewBox="0 0 64.000000 64.000000"
 preserveAspectRatio="xMidYMid meet">

<g transform="translate(0.000000,64.000000) scale(0.100000,-0.100000)"
fill="#000000" stroke="none">
<path d="M95 478 c-125 -73 -125 -243 0 -316 32 -18 51 -22 97 -19 168 10 228
220 92 323 -51 39 -133 44 -189 12z"/>
<path d="M425 466 c-32 -32 -48 -98 -42 -171 14 -188 152 -192 174 -6 11 95
-35 201 -87 201 -11 0 -32 -11 -45 -24z"/>
<path d="M592 453 c-13 -33 -8 -261 6 -275 10 -10 15 -10 22 2 15 24 23 117
17 189 -6 72 -14 101 -28 101 -5 0 -13 -8 -17 -17z"/>
</g>
</svg>
